<?xml version="1.0" encoding="UTF-8"?>
<svg id="Layer_1" xmlns="http://www.w3.org/2000/svg" version="1.1" viewBox="0 0 612 792">
  <!-- Generator: Adobe Illustrator 30.3.0, SVG Export Plug-In . SVG Version: 2.1.3 Build 182)  -->
  <defs>
    <style>
      .st0 {
        fill: #231f20;
      }
    </style>
  </defs>
  <rect class="st0" x="146.4" y="277.3" width="12.5" height="74.2"/>
  <path class="st0" d="M181.6,289.3c2.3,0,4.2-.8,5.8-2.2s2.2-3.3,2.2-5.5-.8-3.8-2.3-5.1c-1.5-1.4-3.4-2.1-5.7-2.1s-4.2.7-5.7,2.2c-1.5,1.4-2.3,3.2-2.3,5.3s.8,3.9,2.3,5.4c1.5,1.4,3.4,2.1,5.7,2.1Z"/>
  <rect class="st0" x="175.3" y="298.1" width="12.5" height="53.4"/>
  <path class="st0" d="M216.7,324.5c0-5.2,1.3-9.2,4-12,2.7-2.8,6.3-4.1,10.9-4.1s7.2,1.2,9.4,3.6c2.2,2.4,3.3,5.9,3.3,10.5v29h12.5v-30.6c0-7.7-2-13.6-6.1-17.5-4.1-3.9-9.5-5.9-16.2-5.9s-7.5.6-10.6,1.9c-3.1,1.3-5.7,3.1-7.8,5.6v-6.9h-11.9v53.4h12.5v-27Z"/>
  <path class="st0" d="M354.3,324.4c0-5.2,1.2-9.2,3.8-11.9,2.5-2.7,5.9-4.1,10.1-4.1s6.8,1.2,8.9,3.6c2.1,2.4,3.1,5.9,3.1,10.5v29h12.5v-27.1c0-5.1,1.3-9.1,3.8-11.9,2.5-2.8,5.9-4.1,10.1-4.1s6.8,1.2,8.9,3.6c2.1,2.4,3.1,5.9,3.1,10.5v29h12.5v-30.6c0-7.8-2-13.6-5.9-17.5s-9.3-5.9-16-5.9-8,.8-11.5,2.4c-3.5,1.6-6.3,3.8-8.5,6.5-1.8-2.9-4.2-5.1-7.3-6.6s-6.7-2.2-10.7-2.2-7,.6-10,1.9c-3,1.3-5.5,3.1-7.5,5.5v-6.8h-11.9v53.4h12.5v-27.1Z"/>
  <path class="st0" d="M457.1,348.7c4.5,2.3,9.6,3.5,15.5,3.5s8.7-.7,12.4-2.2c3.7-1.5,6.7-3.6,9.1-6.5l-6.7-7.7c-3.8,3.9-8.6,5.8-14.5,5.8s-8.4-1.1-11.5-3.5c-3.1-2.3-5-5.4-5.8-9.4h41.9c.1-1.6.2-2.8.2-3.7,0-5.5-1.2-10.3-3.5-14.5-2.3-4.2-5.5-7.4-9.6-9.7-4.1-2.3-8.8-3.5-13.9-3.5s-10,1.2-14.2,3.5c-4.2,2.3-7.5,5.6-9.9,9.8-2.4,4.2-3.5,8.9-3.5,14s1.2,10,3.7,14.2c2.4,4.2,5.9,7.4,10.3,9.8ZM460.6,311c2.8-2.4,6.2-3.5,10.2-3.5s7.5,1.2,10.2,3.6c2.7,2.4,4.4,5.5,4.9,9.4h-30.3c.6-3.9,2.3-7.1,5-9.5Z"/>
  <rect class="st0" x="146.4" y="362.6" width="158.3" height="8.2"/>
  <rect class="st0" x="333.5" y="362.6" width="164.2" height="8.2"/>
  <path class="st0" d="M313.1,302c-.5-.3-1.1-.7-1.7-1-4.3-2.3-9.2-3.5-14.7-3.5s-10.3,1.2-14.6,3.5c-4.3,2.3-7.7,5.6-10.1,9.7-2.4,4.1-3.7,8.8-3.7,14.1s1.2,10,3.7,14.2c2.4,4.2,5.8,7.4,10.1,9.8,4.3,2.3,9.2,3.5,14.6,3.5s10.4-1.2,14.7-3.5c.6-.3,1.1-.6,1.7-1v23.2h12.5v-72.8h-12.5v3.9ZM308.1,336.9c-3,3.1-6.8,4.6-11.4,4.6s-8.4-1.5-11.4-4.6c-3-3.1-4.5-7.1-4.5-12.1s1.5-9,4.5-12.1c3-3.1,6.8-4.6,11.4-4.6s8.4,1.5,11.4,4.6c3,3.1,4.5,7.1,4.5,12.1s-1.5,9-4.5,12.1Z"/>
</svg>